<mxfile host="app.diagrams.net" modified="2024-01-31T10:42:29.416Z" agent="Mozilla/5.0 (Macintosh; Intel Mac OS X 10_15_7) AppleWebKit/537.36 (KHTML, like Gecko) Chrome/120.0.0.0 Whale/3.24.223.18 Safari/537.36" version="23.0.2" etag="XeN89tKkQD9uby-E4Rew" type="github">
  <diagram name="페이지-1" id="_kU-g0kI6CJz6ayQn3II">
    <mxGraphModel>
      <root>
        <mxCell id="0" />
        <mxCell id="1" parent="0" />
      </root>
    </mxGraphModel>
  </diagram>
</mxfile>
